<?xml version="1.0" encoding="UTF-8"?>
<svg id="Ebene_1" data-name="Ebene 1" xmlns="http://www.w3.org/2000/svg" viewBox="0 0 450.37 162.94">
  <defs>
    <style>
      .cls-1 {
        fill: #e20613;
      }

      .cls-2 {
        fill: none;
      }

      .cls-3 {
        fill: #f8b133;
      }

      .cls-4 {
        fill: #0baf16;
      }

      .cls-5 {
        fill: #1d1d1b;
      }
    </style>
  </defs>
  <g>
    <path class="cls-4" d="m59.66,79.47L20.88,26.84c-.79-1.06-1.48-2.12-2.09-3.18l-.59-.91h-.18c.06.79.09,1.74.09,2.86v53.86h-4.5V14.36h3.45l38.51,52.18c.85,1.15,1.77,2.54,2.77,4.18h.23c-.15-2.12-.23-3.94-.23-5.45V14.36h4.5v65.12h-3.18Z"/>
    <path class="cls-2" d="m79.55,79.47V14.36h30.42v4.13h-25.93v26.11h24.07v4.09h-24.07v26.7h27.43v4.09h-31.92Z"/>
    <path class="cls-4" d="m152.84,80.61c-9.2,0-16.54-3.06-22-9.17-5.46-6.12-8.2-14.06-8.2-23.84,0-10.38,2.81-18.7,8.42-24.95,5.62-6.25,13.28-9.38,23-9.38,8.78,0,15.89,3,21.32,9.01,5.43,6.01,8.15,13.89,8.15,23.64,0,10.78-2.79,19.25-8.36,25.43-5.57,6.18-13.02,9.26-22.34,9.26Zm.45-63.26c-7.57,0-13.8,2.74-18.69,8.22-4.89,5.48-7.33,12.65-7.33,21.52s2.32,16.1,6.95,21.41c4.63,5.31,10.81,7.97,18.53,7.97s14.42-2.63,19.12-7.88c4.69-5.25,7.04-12.57,7.04-21.96s-2.29-16.38-6.88-21.55c-4.59-5.16-10.83-7.74-18.73-7.74Z"/>
    <path class="cls-4" d="m196.85,79.47V14.36h4.5v61.03h26.11v4.09h-30.61Z"/>
    <path class="cls-4" d="m239.44,79.47V14.36h4.5v65.12h-4.5Z"/>
    <path class="cls-4" d="m307.74,74.93c-6.72,3.78-13.64,5.68-20.75,5.68-8.87,0-16.05-3.01-21.52-9.04-5.48-6.02-8.22-13.93-8.22-23.7s2.95-18.1,8.85-24.7,13.79-9.9,23.66-9.9c5.72,0,11.28,1.15,16.67,3.45v4.9c-5.9-2.85-11.67-4.27-17.3-4.27-8.2,0-14.8,2.8-19.78,8.4-4.98,5.6-7.47,12.75-7.47,21.43,0,9.14,2.34,16.31,7.02,21.5,4.68,5.19,10.98,7.79,18.91,7.79,5.87,0,11.02-1.27,15.44-3.81v-21.48h-15.35v-4.09h19.84v27.84Z"/>
    <path class="cls-4" d="m364.55,79.47v-31.24h-37.28v31.24h-4.5V14.36h4.5v29.79h37.28V14.36h4.45v65.12h-4.45Z"/>
    <path class="cls-4" d="m403.37,18.49v60.99h-4.45V18.49h-18.8v-4.13h42.05v4.13h-18.8Z"/>
  </g>
  <rect class="cls-5" x="78.44" y="14.69" width="30.42" height="4.13"/>
  <rect class="cls-1" x="78.44" y="44.93" width="30.42" height="4.09"/>
  <rect class="cls-3" x="78.44" y="75.72" width="30.42" height="4.09"/>
  <path class="cls-4" d="m419.19,13.23c-.82,0-1.52-.29-2.1-.86s-.87-1.27-.87-2.09.29-1.53.87-2.1c.58-.58,1.28-.86,2.09-.86s1.51.29,2.1.87.87,1.27.87,2.08-.29,1.52-.87,2.1c-.58.58-1.28.87-2.1.87Zm-.02-5.58c-.71,0-1.32.26-1.83.77-.51.51-.76,1.13-.76,1.86s.25,1.33.76,1.85,1.12.77,1.83.77,1.34-.26,1.86-.77c.51-.51.77-1.13.77-1.85s-.26-1.34-.77-1.86-1.13-.77-1.85-.77Zm.96,4.46l-.45-.97c-.13-.28-.26-.47-.38-.57-.12-.1-.26-.15-.42-.15h-.38v1.69h-.4v-3.81h1.04c.42,0,.75.09.97.27.23.18.34.43.34.73,0,.58-.33.93-1,1.06h0c.22.06.43.29.63.71l.5,1.05h-.45Zm-1.63-3.5v1.49h.69c.26,0,.46-.07.62-.2.15-.13.23-.31.23-.54,0-.5-.31-.75-.94-.75h-.59Z"/>
  <g>
    <path class="cls-4" d="m242.02,121.62h-.1v4.44h-2.25v-37.01h2.25v17.16h.1c.9-1.84,2.18-3.26,3.85-4.26,1.67-1,3.5-1.5,5.51-1.5,3.17,0,5.65,1.09,7.43,3.28,1.78,2.19,2.67,5.16,2.67,8.92,0,4.18-1.03,7.56-3.1,10.14-2.07,2.58-4.75,3.87-8.06,3.87-3.74,0-6.51-1.68-8.3-5.05Zm-.1-9.3v3.15c0,2.51.79,4.66,2.37,6.46,1.58,1.8,3.65,2.7,6.23,2.7s4.63-1.09,6.23-3.28c1.59-2.19,2.39-5.07,2.39-8.63,0-3.12-.73-5.61-2.2-7.45s-3.42-2.76-5.86-2.76c-2.91,0-5.17.98-6.76,2.93-1.6,1.95-2.39,4.25-2.39,6.88Z"/>
    <path class="cls-4" d="m273.78,131.17c-.91,2.25-1.92,3.91-3.03,5-1.11,1.09-2.53,1.64-4.27,1.64-.73,0-1.38-.11-1.95-.34v-2.25c.59.23,1.27.34,2.05.34,2,0,3.58-1.38,4.74-4.15l2.32-5.54-9.47-24.8h2.51l7.54,20.36c.16.44.28.77.34,1,.06.31.14.59.22.83h.1l.59-1.68,8.06-20.51h2.44l-12.18,30.1Z"/>
    <path class="cls-4" d="m322.53,126.06l-14.92-16.75c-.28-.31-.47-.58-.59-.81h-.1v17.55h-2.42v-35.01h2.42v16.5h.1c.2-.34.41-.63.63-.85l14.16-15.65h3.15l-15.36,16.97,16.31,18.04h-3.39Z"/>
    <path class="cls-4" d="m331.47,94.76c-.49,0-.92-.18-1.29-.54s-.56-.81-.56-1.37.19-.97.57-1.31c.38-.33.81-.5,1.28-.5.5,0,.95.16,1.33.49.38.33.57.76.57,1.32,0,.52-.19.97-.56,1.34s-.82.56-1.34.56Zm-1.1,31.3v-25h2.25v25h-2.25Z"/>
    <path class="cls-4" d="m341.16,113.66c0,3.43.79,6.12,2.38,8.06s3.76,2.91,6.53,2.91,5.53-1.03,8.2-3.1v2.39c-2.59,1.84-5.48,2.76-8.67,2.76s-5.83-1.16-7.81-3.47-2.98-5.57-2.98-9.79c0-3.65,1.04-6.72,3.11-9.22,2.08-2.5,4.77-3.75,8.09-3.75,3.11,0,5.49,1.09,7.15,3.27s2.49,5.16,2.49,8.94v1h-18.51Zm16.16-2.05c-.1-2.88-.79-5.12-2.08-6.71-1.29-1.59-3.06-2.39-5.32-2.39s-4.28.79-5.82,2.36c-1.54,1.57-2.49,3.82-2.84,6.75h16.06Z"/>
    <path class="cls-4" d="m382.86,126.06v-14.55c0-6.01-2.17-9.01-6.49-9.01-2.41,0-4.39.88-5.93,2.65-1.55,1.77-2.32,3.95-2.32,6.56v14.36h-2.25v-25h2.25v4.54h.1c1.82-3.43,4.67-5.15,8.54-5.15,2.7,0,4.77.9,6.2,2.7,1.43,1.8,2.15,4.37,2.15,7.7v15.21h-2.25Z"/>
    <path class="cls-4" d="m392.63,126.06v-37.01h2.25v37.01h-2.25Z"/>
    <path class="cls-4" d="m403.42,113.66c0,3.43.79,6.12,2.38,8.06,1.59,1.94,3.76,2.91,6.53,2.91s5.53-1.03,8.2-3.1v2.39c-2.59,1.84-5.48,2.76-8.67,2.76s-5.83-1.16-7.81-3.47c-1.99-2.31-2.98-5.57-2.98-9.79,0-3.65,1.04-6.72,3.11-9.22,2.07-2.5,4.77-3.75,8.09-3.75,3.11,0,5.49,1.09,7.15,3.27s2.49,5.16,2.49,8.94v1h-18.51Zm16.16-2.05c-.1-2.88-.79-5.12-2.08-6.71-1.29-1.59-3.06-2.39-5.32-2.39s-4.28.79-5.82,2.36c-1.54,1.57-2.49,3.82-2.84,6.75h16.06Z"/>
  </g>
</svg>