<?xml version="1.0" encoding="UTF-8"?>
<svg id="Ebene_1" data-name="Ebene 1" xmlns="http://www.w3.org/2000/svg" viewBox="0 0 600 125.67">
  <defs>
    <style>
      .cls-1 {
        fill: #e30613;
      }

      .cls-2 {
        fill: #ffde00;
      }

      .cls-3 {
        fill: none;
      }

      .cls-4 {
        fill: #0baf16;
      }

      .cls-5 {
        fill: #1d1d1b;
      }
    </style>
  </defs>
  <g>
    <path class="cls-4" d="m56.76,88.79L17.98,36.16c-.79-1.06-1.48-2.12-2.09-3.18l-.59-.91h-.18c.06.79.09,1.74.09,2.86v53.86h-4.5V23.67h3.45l38.51,52.18c.85,1.15,1.77,2.54,2.77,4.18h.23c-.15-2.12-.23-3.94-.23-5.45V23.67h4.5v65.12h-3.18Z"/>
    <path class="cls-3" d="m76.65,88.79V23.67h30.42v4.13h-25.93v26.11h24.07v4.09h-24.07v26.7h27.43v4.09h-31.92Z"/>
    <path class="cls-4" d="m149.94,89.93c-9.2,0-16.54-3.06-22-9.17-5.46-6.12-8.2-14.06-8.2-23.84,0-10.38,2.81-18.7,8.42-24.95,5.62-6.25,13.28-9.38,23-9.38,8.78,0,15.89,3,21.32,9.01,5.43,6.01,8.15,13.89,8.15,23.64,0,10.78-2.79,19.25-8.36,25.43-5.57,6.18-13.02,9.26-22.34,9.26Zm.45-63.26c-7.57,0-13.8,2.74-18.69,8.22-4.89,5.48-7.33,12.65-7.33,21.52s2.32,16.1,6.95,21.41c4.63,5.31,10.81,7.97,18.53,7.97s14.42-2.63,19.12-7.88c4.69-5.25,7.04-12.57,7.04-21.96s-2.29-16.38-6.88-21.55c-4.59-5.16-10.83-7.74-18.73-7.74Z"/>
    <path class="cls-4" d="m219.42,88.79V23.67h17.12c5.12,0,9.19,1.38,12.22,4.13,3.03,2.75,4.54,6.4,4.54,10.94,0,3.78-1.01,7.06-3.02,9.83-2.01,2.77-4.82,4.73-8.42,5.88v.18c4.51.42,8.07,2.04,10.67,4.84,2.6,2.8,3.91,6.37,3.91,10.69,0,5.48-1.77,9.95-5.31,13.42s-8.28,5.2-14.21,5.2h-17.48Zm4.5-60.99v25.2h9.08c4.72,0,8.51-1.21,11.35-3.63,2.85-2.42,4.27-5.71,4.27-9.85,0-7.81-4.62-11.72-13.85-11.72h-10.85Zm0,29.29v27.61h12.08c5.12,0,9.03-1.23,11.74-3.68,2.71-2.45,4.06-5.93,4.06-10.44,0-8.99-6.1-13.49-18.3-13.49h-9.58Z"/>
    <path class="cls-4" d="m314.37,62.77c0,18.1-7.72,27.15-23.16,27.15s-22.02-8.72-22.02-26.16V23.67h4.45v39.46c0,15.11,6.15,22.66,18.44,22.66s17.85-7.34,17.85-22.02V23.67h4.45v39.1Z"/>
    <path class="cls-4" d="m330.27,88.79V23.67h4.5v65.12h-4.5Z"/>
    <path class="cls-4" d="m351.47,88.79V23.67h4.5v61.03h26.11v4.09h-30.61Z"/>
    <path class="cls-4" d="m394.07,88.79V23.67h16.3c10.81,0,19.03,2.69,24.66,8.08,5.63,5.39,8.45,13.25,8.45,23.57s-3.02,17.99-9.06,24.18c-6.04,6.19-14.37,9.29-25,9.29h-15.35Zm4.5-60.99v56.9h10.22c9.66,0,17.07-2.5,22.25-7.52,5.18-5.01,7.76-12.24,7.76-21.68,0-18.47-9.7-27.7-29.11-27.7h-11.12Z"/>
    <path class="cls-4" d="m456.73,88.79V23.67h4.5v65.12h-4.5Z"/>
    <path class="cls-4" d="m523.99,88.79l-38.78-52.63c-.79-1.06-1.48-2.12-2.09-3.18l-.59-.91h-.18c.06.79.09,1.74.09,2.86v53.86h-4.5V23.67h3.45l38.51,52.18c.85,1.15,1.77,2.54,2.77,4.18h.23c-.15-2.12-.23-3.94-.23-5.45V23.67h4.5v65.12h-3.18Z"/>
    <path class="cls-4" d="m590.97,84.25c-6.72,3.78-13.64,5.68-20.75,5.68-8.87,0-16.04-3.01-21.52-9.04s-8.22-13.93-8.22-23.7,2.95-18.1,8.86-24.7,13.79-9.9,23.66-9.9c5.72,0,11.28,1.15,16.67,3.45v4.9c-5.9-2.85-11.67-4.27-17.3-4.27-8.21,0-14.8,2.8-19.78,8.4-4.98,5.6-7.47,12.75-7.47,21.43,0,9.14,2.34,16.31,7.02,21.5,4.68,5.19,10.98,7.79,18.91,7.79,5.87,0,11.02-1.27,15.44-3.81v-21.48h-15.35v-4.09h19.84v27.84Z"/>
  </g>
  <rect class="cls-5" x="76.65" y="23.67" width="30.42" height="4.13"/>
  <rect class="cls-1" x="76.65" y="53.92" width="30.42" height="4.09"/>
  <rect class="cls-2" x="76.65" y="84.71" width="31.92" height="4.09"/>
</svg>