<?xml version="1.0" encoding="UTF-8"?>
<svg id="Ebene_1" data-name="Ebene 1" xmlns="http://www.w3.org/2000/svg" viewBox="0 0 554.28 177.15">
  <defs>
    <style>
      .cls-1 {
        fill: #e20613;
      }

      .cls-2 {
        fill: none;
      }

      .cls-3 {
        fill: #f8b133;
      }

      .cls-4 {
        fill: #0baf16;
      }

      .cls-5 {
        fill: #1d1d1b;
      }
    </style>
  </defs>
  <g>
    <path class="cls-4" d="m118.44,88.79l-38.78-52.63c-.79-1.06-1.48-2.12-2.09-3.18l-.59-.91h-.18c.06.79.09,1.74.09,2.86v53.86h-4.5V23.67h3.45l38.51,52.18c.85,1.15,1.77,2.54,2.77,4.18h.23c-.15-2.12-.23-3.94-.23-5.45V23.67h4.5v65.12h-3.18Z"/>
    <path class="cls-2" d="m138.33,88.79V23.67h30.42v4.13h-25.93v26.11h24.07v4.09h-24.07v26.7h27.43v4.09h-31.92Z"/>
    <path class="cls-4" d="m211.62,89.93c-9.2,0-16.54-3.06-22-9.17-5.46-6.12-8.2-14.06-8.2-23.84,0-10.38,2.81-18.7,8.42-24.95,5.62-6.25,13.28-9.38,23-9.38,8.78,0,15.89,3,21.32,9.01,5.43,6.01,8.15,13.89,8.15,23.64,0,10.78-2.79,19.25-8.36,25.43-5.57,6.18-13.02,9.26-22.34,9.26Zm.45-63.26c-7.57,0-13.8,2.74-18.69,8.22-4.89,5.48-7.33,12.65-7.33,21.52s2.32,16.1,6.95,21.41c4.63,5.31,10.81,7.97,18.53,7.97s14.42-2.63,19.12-7.88c4.69-5.25,7.04-12.57,7.04-21.96s-2.29-16.38-6.88-21.55c-4.59-5.16-10.83-7.74-18.73-7.74Z"/>
    <path class="cls-4" d="m276.28,88.79h-3.36l-23.79-65.12h5.04l18.85,52.45c.79,2.18,1.35,4.24,1.68,6.18h.18c.3-1.54.92-3.63,1.86-6.27l20.03-52.36h4.81l-25.29,65.12Z"/>
    <path class="cls-4" d="m311.79,88.79V23.67h4.5v65.12h-4.5Z"/>
    <path class="cls-4" d="m330.96,86.48v-5.13c4.66,2.97,9.38,4.45,14.17,4.45,5.09,0,8.95-1.05,11.58-3.16,2.63-2.1,3.95-5.05,3.95-8.83,0-3.33-.89-5.99-2.66-7.97-1.77-1.98-5.61-4.68-11.51-8.11-6.6-3.84-10.78-7.06-12.53-9.65-1.76-2.59-2.63-5.58-2.63-8.97,0-4.6,1.79-8.51,5.36-11.72,3.57-3.21,8.34-4.81,14.3-4.81,3.88,0,7.75.65,11.63,1.95v4.72c-3.82-1.73-7.89-2.59-12.22-2.59s-7.92,1.12-10.51,3.36c-2.59,2.24-3.88,5.09-3.88,8.54s.89,5.98,2.66,7.95c1.77,1.97,5.59,4.65,11.47,8.04,6.08,3.45,10.13,6.52,12.15,9.2,2.01,2.68,3.02,5.76,3.02,9.24,0,5-1.73,9.07-5.2,12.21-3.47,3.15-8.36,4.72-14.69,4.72-2.24,0-4.82-.35-7.74-1.04s-5.15-1.5-6.7-2.41Z"/>
    <path class="cls-4" d="m379.23,88.79V23.67h4.5v65.12h-4.5Z"/>
    <path class="cls-4" d="m427.23,89.93c-9.2,0-16.54-3.06-22-9.17-5.46-6.12-8.2-14.06-8.2-23.84,0-10.38,2.81-18.7,8.42-24.95,5.62-6.25,13.28-9.38,23-9.38,8.78,0,15.89,3,21.32,9.01,5.43,6.01,8.15,13.89,8.15,23.64,0,10.78-2.79,19.25-8.36,25.43s-13.02,9.26-22.34,9.26Zm.45-63.26c-7.57,0-13.8,2.74-18.69,8.22-4.89,5.48-7.33,12.65-7.33,21.52s2.32,16.1,6.95,21.41c4.63,5.31,10.81,7.97,18.53,7.97s14.42-2.63,19.12-7.88c4.69-5.25,7.04-12.57,7.04-21.96s-2.29-16.38-6.88-21.55c-4.59-5.16-10.83-7.74-18.73-7.74Z"/>
    <path class="cls-4" d="m517.27,88.79l-38.78-52.63c-.79-1.06-1.48-2.12-2.09-3.18l-.59-.91h-.18c.06.79.09,1.74.09,2.86v53.86h-4.5V23.67h3.45l38.51,52.18c.85,1.15,1.77,2.54,2.77,4.18h.23c-.15-2.12-.23-3.94-.23-5.45V23.67h4.5v65.12h-3.18Z"/>
  </g>
  <rect class="cls-5" x="141.99" y="23.67" width="30.42" height="4.13"/>
  <rect class="cls-1" x="141.99" y="53.92" width="30.42" height="4.09"/>
  <rect class="cls-3" x="141.99" y="84.71" width="30.42" height="4.09"/>
  <path class="cls-4" d="m524.46,23.67c-1.11,0-2.06-.39-2.84-1.17s-1.17-1.72-1.17-2.82.39-2.07,1.18-2.84c.79-.78,1.73-1.17,2.83-1.17s2.05.39,2.84,1.17,1.18,1.72,1.18,2.82-.39,2.06-1.17,2.84-1.73,1.17-2.84,1.17Zm-.03-7.55c-.96,0-1.79.35-2.47,1.04-.69.7-1.03,1.53-1.03,2.51s.34,1.8,1.03,2.5c.68.69,1.51,1.04,2.48,1.04s1.82-.35,2.51-1.04,1.04-1.53,1.04-2.5-.35-1.82-1.05-2.51c-.7-.7-1.54-1.04-2.51-1.04Zm1.29,6.04l-.61-1.32c-.18-.38-.35-.64-.52-.77s-.35-.2-.56-.2h-.51v2.28h-.55v-5.16h1.41c.57,0,1.01.12,1.32.37.31.25.46.58.46.98,0,.79-.45,1.26-1.35,1.43v.02c.3.06.59.37.85.93l.68,1.42h-.61Zm-2.21-4.73v2.02h.93c.35,0,.63-.09.83-.27.21-.18.31-.42.31-.73,0-.68-.42-1.02-1.27-1.02h-.8Z"/>
  <g>
    <path class="cls-4" d="m333.62,135.66h-.1v4.62h-2.34v-38.49h2.34v17.85h.1c.93-1.91,2.26-3.39,4-4.43s3.64-1.56,5.73-1.56c3.3,0,5.88,1.14,7.73,3.42s2.78,5.37,2.78,9.28c0,4.35-1.08,7.87-3.22,10.55s-4.94,4.02-8.38,4.02c-3.89,0-6.77-1.75-8.63-5.26Zm-.1-9.67v3.28c0,2.61.82,4.85,2.46,6.72s3.8,2.81,6.47,2.81,4.82-1.14,6.47-3.42,2.49-5.27,2.49-8.98c0-3.25-.76-5.83-2.29-7.74s-3.55-2.87-6.09-2.87c-3.03,0-5.37,1.02-7.03,3.05s-2.49,4.42-2.49,7.16Z"/>
    <path class="cls-4" d="m366.66,145.58c-.95,2.34-2,4.07-3.15,5.21s-2.63,1.7-4.44,1.7c-.76,0-1.44-.12-2.03-.36v-2.34c.61.24,1.32.36,2.13.36,2.08,0,3.72-1.44,4.93-4.32l2.41-5.76-9.85-25.8h2.62l7.85,21.18c.17.46.29.8.36,1.04.07.32.14.61.23.86h.1l.61-1.75,8.38-21.33h2.54l-12.67,31.31Z"/>
    <path class="cls-4" d="m417.36,140.28l-15.51-17.42c-.29-.32-.49-.6-.61-.84h-.1v18.26h-2.51v-36.41h2.51v17.16h.1c.2-.36.42-.65.66-.89l14.73-16.28h3.28l-15.97,17.65,16.96,18.76h-3.53Z"/>
    <path class="cls-4" d="m426.65,107.73c-.51,0-.96-.19-1.35-.56s-.58-.85-.58-1.42.2-1.01.6-1.36.84-.52,1.33-.52c.52,0,.99.17,1.38.51s.6.8.6,1.37c0,.54-.19,1.01-.58,1.4s-.85.58-1.4.58Zm-1.14,32.55v-26h2.34v26h-2.34Z"/>
    <path class="cls-4" d="m436.73,127.38c0,3.57.83,6.36,2.48,8.38s3.91,3.02,6.79,3.02,5.75-1.08,8.53-3.22v2.49c-2.69,1.91-5.7,2.87-9.01,2.87s-6.06-1.2-8.12-3.61-3.1-5.8-3.1-10.18c0-3.79,1.08-6.99,3.24-9.58s4.96-3.9,8.42-3.9c3.23,0,5.71,1.13,7.44,3.4s2.59,5.37,2.59,9.29v1.04h-19.25Zm16.81-2.13c-.1-3-.82-5.32-2.16-6.98s-3.18-2.49-5.54-2.49-4.46.82-6.06,2.45-2.59,3.97-2.96,7.02h16.71Z"/>
    <path class="cls-4" d="m480.1,140.28v-15.13c0-6.25-2.25-9.37-6.75-9.37-2.5,0-4.56.92-6.17,2.75s-2.41,4.11-2.41,6.82v14.93h-2.34v-26h2.34v4.72h.1c1.9-3.57,4.86-5.36,8.89-5.36,2.81,0,4.96.94,6.45,2.81s2.23,4.54,2.23,8.01v15.82h-2.34Z"/>
    <path class="cls-4" d="m490.26,140.28v-38.49h2.34v38.49h-2.34Z"/>
    <path class="cls-4" d="m501.48,127.38c0,3.57.83,6.36,2.48,8.38s3.91,3.02,6.79,3.02,5.75-1.08,8.53-3.22v2.49c-2.69,1.91-5.7,2.87-9.01,2.87s-6.06-1.2-8.12-3.61-3.1-5.8-3.1-10.18c0-3.79,1.08-6.99,3.24-9.58s4.96-3.9,8.42-3.9c3.23,0,5.71,1.13,7.44,3.4s2.59,5.37,2.59,9.29v1.04h-19.25Zm16.81-2.13c-.1-3-.82-5.32-2.16-6.98s-3.18-2.49-5.54-2.49-4.46.82-6.06,2.45-2.59,3.97-2.96,7.02h16.71Z"/>
  </g>
</svg>