<?xml version="1.0" encoding="UTF-8"?>
<svg id="Ebene_1" data-name="Ebene 1" xmlns="http://www.w3.org/2000/svg" viewBox="0 0 347.82 116.35">
  <defs>
    <style>
      .cls-1 {
        fill: #e20613;
      }

      .cls-2 {
        fill: none;
      }

      .cls-3 {
        fill: #f8b133;
      }

      .cls-4 {
        fill: #0baf16;
      }

      .cls-5 {
        fill: #1d1d1b;
      }
    </style>
  </defs>
  <g>
    <path class="cls-4" d="m59.78,79.47L21,26.84c-.79-1.06-1.48-2.12-2.09-3.18l-.59-.91h-.18c.06.79.09,1.74.09,2.86v53.86h-4.5V14.36h3.45l38.51,52.18c.85,1.15,1.77,2.54,2.77,4.18h.23c-.15-2.12-.23-3.94-.23-5.45V14.36h4.5v65.12h-3.18Z"/>
    <path class="cls-2" d="m79.67,79.47V14.36h30.42v4.13h-25.93v26.11h24.07v4.09h-24.07v26.7h27.43v4.09h-31.92Z"/>
    <path class="cls-4" d="m152.97,80.61c-9.2,0-16.54-3.06-22-9.17-5.46-6.12-8.2-14.06-8.2-23.84,0-10.38,2.81-18.7,8.42-24.95,5.62-6.25,13.28-9.38,23-9.38,8.78,0,15.89,3,21.32,9.01,5.43,6.01,8.15,13.89,8.15,23.64,0,10.78-2.79,19.25-8.36,25.43-5.57,6.18-13.02,9.26-22.34,9.26Zm.45-63.26c-7.57,0-13.8,2.74-18.69,8.22-4.89,5.48-7.33,12.65-7.33,21.52s2.32,16.1,6.95,21.41c4.63,5.31,10.81,7.97,18.53,7.97s14.42-2.63,19.12-7.88c4.69-5.25,7.04-12.57,7.04-21.96s-2.29-16.38-6.88-21.55c-4.59-5.16-10.83-7.74-18.73-7.74Z"/>
    <path class="cls-4" d="m229.75,79.47l-14.99-24.84c-.94-1.54-1.74-3.06-2.41-4.54h-.23c-.82,1.67-1.68,3.18-2.59,4.54l-15.26,24.84h-5.4l20.57-32.83-19.34-32.29h5.4l14.58,24.48c.76,1.27,1.54,2.72,2.36,4.36h.18l2.41-4.36,14.49-24.48h5.22l-19.53,32.2,19.98,32.92h-5.45Z"/>
    <path class="cls-4" d="m246.83,79.47V14.36h4.5v65.12h-4.5Z"/>
    <path class="cls-4" d="m268.04,79.47V14.36h16.3c10.81,0,19.03,2.69,24.66,8.08,5.63,5.39,8.45,13.25,8.45,23.57s-3.02,17.99-9.06,24.18-14.37,9.29-25,9.29h-15.35Zm4.5-60.99v56.9h10.22c9.66,0,17.07-2.5,22.25-7.52,5.18-5.01,7.76-12.24,7.76-21.68,0-18.47-9.7-27.7-29.11-27.7h-11.13Z"/>
  </g>
  <rect class="cls-5" x="79.44" y="14.69" width="30.42" height="4.13"/>
  <rect class="cls-1" x="79.44" y="44.93" width="30.42" height="4.09"/>
  <rect class="cls-3" x="79.44" y="75.72" width="30.42" height="4.09"/>
  <path class="cls-4" d="m313.44,22.84c-1.11,0-2.06-.39-2.84-1.17-.78-.78-1.17-1.72-1.17-2.82s.39-2.07,1.18-2.84c.79-.78,1.73-1.17,2.83-1.17s2.05.39,2.84,1.17c.79.78,1.18,1.72,1.18,2.82s-.39,2.06-1.17,2.84-1.73,1.17-2.84,1.17Zm-.03-7.55c-.96,0-1.79.35-2.47,1.04-.69.7-1.03,1.53-1.03,2.51s.34,1.8,1.02,2.5c.68.69,1.51,1.04,2.48,1.04s1.82-.35,2.51-1.04c.7-.69,1.04-1.53,1.04-2.5s-.35-1.82-1.05-2.51c-.7-.7-1.54-1.04-2.51-1.04Zm1.3,6.04l-.61-1.32c-.18-.38-.35-.64-.52-.77s-.36-.2-.56-.2h-.51v2.28h-.55v-5.16h1.41c.57,0,1.01.12,1.32.37.31.25.46.58.46.98,0,.79-.45,1.26-1.35,1.43v.02c.3.06.59.37.85.93l.68,1.42h-.61Zm-2.21-4.73v2.02h.93c.35,0,.62-.09.83-.27.21-.18.31-.42.31-.73,0-.68-.42-1.02-1.28-1.02h-.8Z"/>
</svg>