<?xml version="1.0" encoding="UTF-8"?>
<svg id="Ebene_1" data-name="Ebene 1" xmlns="http://www.w3.org/2000/svg" viewBox="0 0 433.05 116.35">
  <defs>
    <style>
      .cls-1 {
        fill: #e20613;
      }

      .cls-2 {
        fill: none;
      }

      .cls-3 {
        fill: #f8b133;
      }

      .cls-4 {
        fill: #0baf16;
      }

      .cls-5 {
        fill: #1d1d1b;
      }
    </style>
  </defs>
  <g>
    <path class="cls-4" d="m43.16,79.47l-8.67-19.07c-1.79-3.94-3.57-6.58-5.36-7.92-1.79-1.35-4.03-2.02-6.72-2.02h-8.08v29.02h-4.5V14.36h18.07c5.75,0,10.27,1.55,13.55,4.65,3.28,3.1,4.93,7.2,4.93,12.28,0,4.69-1.35,8.61-4.04,11.76-2.69,3.15-6.46,5.18-11.31,6.08v.18c2.57,1.03,5.09,4.16,7.54,9.4l9.67,20.75h-5.09ZM14.33,18.49v27.88h11.22c4.96,0,8.91-1.3,11.83-3.91,2.92-2.6,4.38-6.18,4.38-10.72,0-4.15-1.32-7.39-3.95-9.74-2.63-2.35-6.4-3.52-11.31-3.52h-12.17Z"/>
    <path class="cls-2" d="m61.46,79.47V14.36h30.42v4.13h-25.93v26.11h24.07v4.09h-24.07v26.7h27.43v4.09h-31.92Z"/>
    <path class="cls-4" d="m154.01,79.47l-38.78-52.63c-.79-1.06-1.48-2.12-2.09-3.18l-.59-.91h-.18c.06.79.09,1.74.09,2.86v53.86h-4.5V14.36h3.45l38.51,52.18c.85,1.15,1.77,2.54,2.77,4.18h.23c-.15-2.12-.23-3.94-.23-5.45V14.36h4.5v65.12h-3.18Z"/>
    <path class="cls-4" d="m200.69,80.61c-9.2,0-16.54-3.06-22-9.17-5.46-6.12-8.2-14.06-8.2-23.84,0-10.38,2.81-18.7,8.42-24.95,5.62-6.25,13.28-9.38,23-9.38,8.78,0,15.89,3,21.32,9.01,5.43,6.01,8.15,13.89,8.15,23.64,0,10.78-2.79,19.25-8.36,25.43-5.57,6.18-13.02,9.26-22.34,9.26Zm.45-63.26c-7.57,0-13.8,2.74-18.69,8.22-4.89,5.48-7.33,12.65-7.33,21.52s2.32,16.1,6.95,21.41c4.63,5.31,10.81,7.97,18.53,7.97s14.42-2.63,19.12-7.88c4.69-5.25,7.04-12.57,7.04-21.96s-2.29-16.38-6.88-21.55c-4.59-5.16-10.83-7.74-18.73-7.74Z"/>
    <path class="cls-4" d="m244.69,79.47V14.36h17.12c5.12,0,9.19,1.38,12.22,4.13,3.03,2.75,4.54,6.4,4.54,10.94,0,3.78-1.01,7.06-3.02,9.83-2.01,2.77-4.82,4.73-8.42,5.88v.18c4.51.42,8.07,2.04,10.67,4.84,2.6,2.8,3.91,6.37,3.91,10.69,0,5.48-1.77,9.95-5.31,13.42s-8.28,5.2-14.21,5.2h-17.48Zm4.5-60.99v25.2h9.08c4.72,0,8.51-1.21,11.35-3.63,2.85-2.42,4.27-5.71,4.27-9.85,0-7.81-4.62-11.72-13.85-11.72h-10.85Zm0,29.29v27.61h12.08c5.12,0,9.03-1.23,11.74-3.68,2.71-2.45,4.06-5.93,4.06-10.44,0-8.99-6.1-13.49-18.3-13.49h-9.58Z"/>
    <path class="cls-4" d="m322.07,80.61c-9.2,0-16.54-3.06-22-9.17-5.47-6.12-8.2-14.06-8.2-23.84,0-10.38,2.81-18.7,8.42-24.95,5.62-6.25,13.28-9.38,23-9.38,8.78,0,15.89,3,21.32,9.01,5.43,6.01,8.15,13.89,8.15,23.64,0,10.78-2.79,19.25-8.36,25.43s-13.02,9.26-22.34,9.26Zm.45-63.26c-7.57,0-13.8,2.74-18.69,8.22-4.89,5.48-7.33,12.65-7.33,21.52s2.32,16.1,6.95,21.41c4.63,5.31,10.81,7.97,18.53,7.97s14.42-2.63,19.12-7.88c4.69-5.25,7.04-12.57,7.04-21.96s-2.29-16.38-6.88-21.55c-4.59-5.16-10.83-7.74-18.73-7.74Z"/>
    <path class="cls-4" d="m398.86,79.47l-14.98-24.84c-.94-1.54-1.74-3.06-2.41-4.54h-.23c-.82,1.67-1.68,3.18-2.59,4.54l-15.26,24.84h-5.4l20.57-32.83-19.34-32.29h5.4l14.58,24.48c.76,1.27,1.54,2.72,2.36,4.36h.18l2.41-4.36,14.49-24.48h5.22l-19.53,32.2,19.98,32.92h-5.45Z"/>
  </g>
  <rect class="cls-5" x="62.44" y="14.69" width="30.42" height="4.13"/>
  <rect class="cls-1" x="62.44" y="44.93" width="30.42" height="4.09"/>
  <rect class="cls-3" x="62.44" y="75.72" width="30.42" height="4.09"/>
  <path class="cls-4" d="m401.34,13.79c-.82,0-1.52-.29-2.1-.86s-.87-1.27-.87-2.09.29-1.53.87-2.1c.58-.58,1.28-.86,2.09-.86s1.51.29,2.1.87.87,1.27.87,2.08-.29,1.52-.87,2.1c-.58.58-1.28.87-2.1.87Zm-.02-5.58c-.71,0-1.32.26-1.83.77-.51.51-.76,1.13-.76,1.86s.25,1.33.76,1.85,1.12.77,1.83.77,1.34-.26,1.86-.77c.51-.51.77-1.13.77-1.85s-.26-1.34-.77-1.86-1.13-.77-1.85-.77Zm.96,4.46l-.45-.97c-.13-.28-.26-.47-.38-.57-.12-.1-.26-.15-.42-.15h-.38v1.69h-.4v-3.81h1.04c.42,0,.75.09.97.27.23.18.34.43.34.73,0,.58-.33.93-1,1.06h0c.22.06.43.29.63.71l.5,1.05h-.45Zm-1.63-3.5v1.49h.69c.26,0,.46-.07.62-.2.15-.13.23-.31.23-.54,0-.5-.31-.75-.94-.75h-.59Z"/>
</svg>